<svg id="visual" viewBox="0 0 900 600" width="900" height="600" xmlns="http://www.w3.org/2000/svg" xmlns:xlink="http://www.w3.org/1999/xlink" version="1.1"><rect x="0" y="0" width="900" height="600" fill="#ffffff"></rect><defs><linearGradient id="grad1_0" x1="33.3%" y1="0%" x2="100%" y2="100%"><stop offset="20%" stop-color="#ffffff" stop-opacity="1"></stop><stop offset="80%" stop-color="#ffffff" stop-opacity="1"></stop></linearGradient></defs><defs><linearGradient id="grad2_0" x1="0%" y1="0%" x2="66.7%" y2="100%"><stop offset="20%" stop-color="#ffffff" stop-opacity="1"></stop><stop offset="80%" stop-color="#ffffff" stop-opacity="1"></stop></linearGradient></defs><g transform="translate(900, 0)"><path d="M0 324.5C-51.1 306.7 -102.1 289 -152.5 264.1C-202.9 239.3 -252.5 207.4 -281 162.2C-309.6 117.1 -317 58.5 -324.5 0L0 0Z" fill="#e9e9e9"></path></g><g transform="translate(0, 600)"><path d="M0 -324.5C61.5 -318.8 123.1 -313 162.2 -281C201.4 -249 218.3 -190.7 241.6 -139.5C264.9 -88.3 294.7 -44.1 324.5 0L0 0Z" fill="#e9e9e9"></path></g></svg>